<svg width="32" height="32" viewBox="0 0 32 32" xmlns="http://www.w3.org/2000/svg"><path fill-rule="evenodd" clip-rule="evenodd" d="M32 16C32 24.8366 24.8366 32 16 32C7.16344 32 0 24.8366 0 16C0 7.16344 7.16344 0 16 0C24.8366 0 32 7.16344 32 16ZM21.9867 26.4023C23.8188 25.3456 25.3456 23.8188 26.4023 21.9867C24.9778 22.081 23.5427 21.6587 22.4002 20.8006C21.9452 21.4062 21.4062 21.9452 20.8006 22.4002C21.6587 23.5427 22.081 24.9778 21.9867 26.4023ZM18.435 27.7528C19.2971 27.5751 20.1255 27.3049 20.9093 26.9531C21.1785 25.558 20.8318 24.0785 19.9631 22.951C19.0489 21.7645 17.6137 21 16 21C14.061 21 12.3799 19.8963 11.5504 18.2829C11.266 18.9737 10.8563 19.5998 10.3497 20.1329C11.6233 21.8712 13.6798 23 16 23C17.6569 23 19 24.3431 19 26C19 26.6543 18.7905 27.2597 18.435 27.7528ZM5.59772 21.9867C6.6544 23.8188 8.18118 25.3456 10.0133 26.4023C9.91898 24.9778 10.3413 23.5427 11.1994 22.4002C10.5938 21.9452 10.0548 21.4062 9.59984 20.8006C8.45732 21.6587 7.02215 22.081 5.59772 21.9867ZM4.24719 18.435C4.42489 19.2971 4.69507 20.1255 5.0469 20.9093C8.09243 21.4971 11 19.0786 11 16C11 14.061 12.1037 12.3799 13.7171 11.5504C13.0263 11.266 12.4002 10.8563 11.8671 10.3497C10.1288 11.6233 9 13.6798 9 16C9 17.6569 7.65685 19 6 19C5.34567 19 4.74026 18.7905 4.24719 18.435ZM12.0369 22.951C11.3867 23.7949 11 24.8523 11 26C11 28.7614 13.2386 31 16 31C22.8924 31 28.699 26.3514 30.4557 20.0184C29.7136 20.8407 28.7472 21.4565 27.6528 21.7695C25.5272 26.0545 21.1076 29 16 29C14.3431 29 13 27.6569 13 26C13 25.1048 13.3921 24.3012 14.0139 23.7515C13.3133 23.5726 12.6497 23.3011 12.0369 22.951ZM10.2305 27.6528C10.5435 28.7472 11.1593 29.7136 11.9816 30.4557C5.64862 28.699 1 22.8924 1 16C1 14.0296 2.13976 12.3254 3.79597 11.5107C5.48342 10.6807 7.55745 10.8877 9.04903 12.0369C8.69888 12.6497 8.42744 13.3133 8.24847 14.0139C7.6988 13.3921 6.89519 13 6 13C4.34315 13 3 14.3431 3 16C3 21.1076 5.94551 25.5272 10.2305 27.6528ZM28.204 20.4893C29.8602 19.6746 31 17.9704 31 16C31 9.10761 26.3514 3.30096 20.0184 1.54432C20.8407 2.28638 21.4565 3.25284 21.7695 4.34718C26.0545 6.47283 29 10.8924 29 16C29 17.6569 27.6569 19 26 19C25.1048 19 24.3012 18.6079 23.7515 17.9861C23.5726 18.6867 23.3011 19.3503 22.951 19.9631C24.4426 21.1123 26.5166 21.3193 28.204 20.4893ZM20.1329 21.6503C21.8712 20.3767 23 18.3202 23 16C23 14.3431 24.3431 13 26 13C26.6543 13 27.2597 13.2095 27.7528 13.565C27.5751 12.7029 27.3049 11.8745 26.9531 11.0907C25.558 10.8215 24.0785 11.1682 22.951 12.0369C21.7644 12.9512 21 14.3863 21 16C21 17.939 19.8963 19.6201 18.2829 20.4496C18.9737 20.734 19.5998 21.1437 20.1329 21.6503ZM21.6503 11.8671C21.2253 11.287 20.713 10.7747 20.1329 10.3497C18.9746 9.50108 17.5458 9 16 9C15.2383 9 14.543 8.71615 14.0139 8.24847C13.3921 7.6988 13 6.89519 13 6C13 5.34567 13.2095 4.74026 13.565 4.24719C12.7029 4.42489 11.8745 4.69507 11.0907 5.0469C10.5086 8.06296 12.8972 11 16 11C17.939 11 19.6201 12.1037 20.4496 13.7171C20.734 13.0262 21.1437 12.4002 21.6503 11.8671ZM6 18C7.10457 18 8 17.1046 8 16C8 14.8954 7.10457 14 6 14C4.89543 14 4 14.8954 4 16C4 17.1046 4.89543 18 6 18ZM16 8C17.1046 8 18 7.10457 18 6C18 4.89543 17.1046 4 16 4C14.8954 4 14 4.89543 14 6C14 7.10457 14.8954 8 16 8ZM26 18C27.1046 18 28 17.1046 28 16C28 14.8954 27.1046 14 26 14C24.8954 14 24 14.8954 24 16C24 17.1046 24.8954 18 26 18ZM16 28C17.1046 28 18 27.1046 18 26C18 24.8954 17.1046 24 16 24C14.8954 24 14 24.8954 14 26C14 27.1046 14.8954 28 16 28ZM4.34718 10.2305C3.25284 10.5435 2.28638 11.1593 1.54432 11.9816C3.30096 5.64862 9.10761 1 16 1C18.7614 1 21 3.23857 21 6C21 7.14772 20.6133 8.20513 19.9631 9.04903C19.3503 8.69888 18.6867 8.42744 17.9861 8.24847C18.6079 7.6988 19 6.89519 19 6C19 4.34315 17.6569 3 16 3C10.8924 3 6.47283 5.94551 4.34718 10.2305ZM22.4002 11.1994C21.9452 10.5938 21.4062 10.0548 20.8006 9.59984C21.6587 8.45732 22.081 7.02215 21.9867 5.59772C23.8188 6.6544 25.3456 8.18118 26.4023 10.0133C24.9778 9.91898 23.5427 10.3413 22.4002 11.1994ZM11.1994 9.59984C10.5938 10.0548 10.0548 10.5938 9.59984 11.1994C8.45732 10.3413 7.02216 9.91898 5.59772 10.0133C6.6544 8.18118 8.18118 6.65441 10.0133 5.59772C9.91898 7.02216 10.3413 8.45732 11.1994 9.59984ZM16 20C18.2091 20 20 18.2091 20 16C20 13.7909 18.2091 12 16 12C13.7909 12 12 13.7909 12 16C12 18.2091 13.7909 20 16 20Z" fill="black"/></svg>